<svg width="465" height="61" viewBox="0 0 465 61" fill="none" xmlns="http://www.w3.org/2000/svg">
<path fill-rule="evenodd" clip-rule="evenodd" d="M93 20V30H113V36H93V61H122V20H93ZM102 45V51.5H114V45H102Z" fill="black"/>
<path d="M385.5 4H376V19.5H367.5V29.5H376V61H397.5L393 51H385.5V29.5H397.5V19.5H385.5V4Z" fill="black"/>
<path d="M444 18H434V61H444V39L465 18H452.5L444 26.5V18Z" fill="black"/>
<path d="M365 0.5H338.5L331 10V36.5H356V51H331V61H365V26H340.5V11H365V0.5Z" fill="black"/>
<path d="M279 20H253L245 30V61H274L281 50.5H254V30H269V36H257V45H279V20Z" fill="black"/>
<path fill-rule="evenodd" clip-rule="evenodd" d="M402 20V30H422V36H402V61H431V20H402ZM411 45V51.5H423V45H411Z" fill="black"/>
<path d="M184 29.5H164V50.5H175V31H184V53L175.5 61H154.5V29.5L162.5 20.5H184V29.5Z" fill="black"/>
<path d="M197 20H187L194.5 61H213L216 44.5L217.5 61H234.5L242 20H232L226 51L220.5 20H208.5L202 51L197 20Z" fill="black"/>
<path d="M34 0.5H7.5L0 10V36.5H25V51H0V61H34V26H9.5V11H34V0.5Z" fill="black"/>
<path d="M46 20H36L43.5 61H62L65 44.5L66.5 61H83.5L91 20H81L75 51L69.5 20H57.5L51 51L46 20Z" fill="black"/>
<path d="M127 61V1H136V61H127Z" fill="black"/>
<path d="M142 61V1H151V61H142Z" fill="black"/>
<path fill-rule="evenodd" clip-rule="evenodd" d="M292 20.5L284.5 28V61H318V1H308.5V20.5H292ZM294 30V51H308.5V30H294Z" fill="black"/>
</svg>
